<svg xmlns="http://www.w3.org/2000/svg" viewBox="0 0 423.31 183.58"><defs><style>.cls-1{font-size:100.79px;font-family:Recoleta-Medium, Recoleta;font-weight:500;}.cls-2{letter-spacing:0em;}.cls-3{letter-spacing:0em;}.cls-4{letter-spacing:-0.02em;}.cls-5{fill:#29235c;stroke:#000;stroke-miterlimit:10;stroke-width:0.5px;}</style></defs><g id="Layer_2" data-name="Layer 2"><g id="Layer_1-2" data-name="Layer 1"><text class="cls-1" transform="translate(0 151.73)">pl<tspan class="cls-2" x="84.36" y="0">at</tspan><tspan x="173.56" y="0">e</tspan><tspan class="cls-3" x="223.24" y="0">f</tspan><tspan x="259.53" y="0">ull</tspan><tspan class="cls-4" x="369.28" y="0">y</tspan></text><g id="Layer_2-2" data-name="Layer 2"><g id="OBJECTS"><path class="cls-5" d="M156.15,49.49a1,1,0,0,1-.42-.09.67.67,0,0,1-.38-1v0c6.78-10.94,17.82-19.65,31.34-24.74a1,1,0,0,1,1.18.37.7.7,0,0,1-.46,1h0c-13.13,5-23.87,13.44-30.48,24.07A.92.92,0,0,1,156.15,49.49Z"/><path class="cls-5" d="M150,64h-.18a.76.76,0,0,1-.69-.88h0a46.69,46.69,0,0,1,2.25-6.9.94.94,0,0,1,1.12-.46.72.72,0,0,1,.57.93,45.06,45.06,0,0,0-2.16,6.7A.89.89,0,0,1,150,64Z"/><path class="cls-5" d="M138.59,70.19a1,1,0,0,1-.66-.24.71.71,0,0,1-.23-.52c2.67-31.49,33.35-56.36,71.43-57.9V9.64A5.07,5.07,0,0,1,206,5.21c.18-2.89,3.16-5.11,6.65-4.95,3.22.14,5.8,2.27,6,5a5.07,5.07,0,0,1-3.09,4.43v1.85c38.07,1.57,68.72,26.46,71.36,57.94a.68.68,0,0,1-.23.56,1,1,0,0,1-.66.24ZM212.32,1.42c-2.49,0-4.52,1.67-4.53,3.74a3.69,3.69,0,0,0,2.52,3.37.77.77,0,0,1,.5.67v3a.82.82,0,0,1-.86.73c-37.13,1.2-67.34,25.16-70.39,55.82H285.07C282,38,251.76,14.1,214.63,12.94a.84.84,0,0,1-.88-.74v-3a.73.73,0,0,1,.52-.66,3.73,3.73,0,0,0,2.57-3.37c0-2.08-2-3.77-4.5-3.79Z"/><path class="cls-5" d="M214.64,9.94h-2.32a.83.83,0,0,1-.89-.74.83.83,0,0,1,.89-.74h2.32a.83.83,0,0,1,.9.74A.83.83,0,0,1,214.64,9.94Z"/></g></g><path class="cls-5" d="M291.13,179.41H132.18v-1.47a7,7,0,0,1,7.19-6.66H283.92a7,7,0,0,1,7.19,6.66Zm-157.35-1.47H289.53a5.42,5.42,0,0,0-5.61-5.18H139.37A5.4,5.4,0,0,0,133.78,177.94Z"/></g></g></svg>